<mxfile host="app.diagrams.net" modified="2024-06-03T11:53:32.962Z" agent="Mozilla/5.0 (Windows NT 10.0; Win64; x64) AppleWebKit/537.36 (KHTML, like Gecko) Chrome/125.0.0.0 Safari/537.36" etag="aUDUWeVIvPDm8nc3vm8r" version="24.4.9" type="device">
  <diagram name="Страница — 1" id="qZq75mEThNtSq_BYe4qf">
    <mxGraphModel dx="1304" dy="709" grid="1" gridSize="10" guides="1" tooltips="1" connect="1" arrows="1" fold="1" page="1" pageScale="1" pageWidth="827" pageHeight="1169" math="0" shadow="0">
      <root>
        <mxCell id="0" />
        <mxCell id="1" parent="0" />
        <mxCell id="sTEcWktnqmlNov8V5_Up-2" value="&lt;p style=&quot;margin:0px;margin-top:4px;text-align:center;&quot;&gt;&lt;b&gt;Student&lt;/b&gt;&lt;/p&gt;&lt;hr size=&quot;1&quot; style=&quot;border-style:solid;&quot;&gt;&lt;p style=&quot;margin:0px;margin-left:4px;&quot;&gt;- name: string&lt;/p&gt;&lt;p style=&quot;margin:0px;margin-left:4px;&quot;&gt;- marks[*]: int&amp;nbsp;&lt;/p&gt;&lt;hr size=&quot;1&quot; style=&quot;border-style:solid;&quot;&gt;&lt;p style=&quot;margin:0px;margin-left:4px;&quot;&gt;+ getName(): string&lt;/p&gt;&lt;p style=&quot;margin:0px;margin-left:4px;&quot;&gt;+ addMark(mark: int): void&lt;/p&gt;" style="verticalAlign=top;align=left;overflow=fill;html=1;whiteSpace=wrap;" vertex="1" parent="1">
          <mxGeometry x="14" y="10" width="160" height="150" as="geometry" />
        </mxCell>
        <mxCell id="sTEcWktnqmlNov8V5_Up-5" value="" style="shape=image;verticalLabelPosition=bottom;labelBackgroundColor=default;verticalAlign=top;aspect=fixed;imageAspect=0;image=data:image/png,iVBORw0KGgoAAAANSUhEUgAAARMAAAC3CAMAAAAGjUrGAAAAe1BMVEX///8AAAD5+fmTk5MtLS3Z2dnU1NT09PSzs7M5OTl4eHjh4eGQkJA/Pz8xMTH8/PxkZGRfX1/p6em8vLzMzMyjo6Opqanv7++0tLSdnZ16enrd3d2Xl5enp6fFxcVpaWmFhYVNTU1WVlZFRUUdHR1wcHAVFRUlJSUNDQ3x76gtAAAP+UlEQVR4nO2dCXujLBDHB4zifQCKVxAxxnz/T/hikuZo0/bZbd8m2frbZ7PN5Fj4F0YYYARYWFhYWFhYWFhYWPgqqsb3LsKjIawYKTu5dzEejCacUOjcuxSPRlChyW/uXYpHA1srlDbv9CAsfmnXEtWARn7T3aaI/3RpHgVaRKhmN16I0/WPF+ZhIAVC+o23ZYPUBMAdIkXA0VHXAM2iDEObA1gtVC7wCONqGFyAzAaSOqAp1CE0Ohr6rxUpuTemDG6PBkmuitWFQRxAGTdErelUJoUiUw5hBLUC8GtQOR4RtjtBJw5bB8SKw446mxF6C+ztlyTB1gNQhSuEMnahCvUC8CtT8/kJ62aP46wIkG2gQqOJArXmWYzBcfOVhI3RJOawaXw1gmk4zuZLmpB4dXdib/B2CFUXvpahboxjGMv5Se7PjzI2D8h+0aTo3AHLoWDeSZNVrsoOSm/U6EuaAL47CW46tFHiolCJGpuGbWlbJ4AT3lNIcDBRaCZhPMbcf1RWi4iYpkS3e02I0QRlDusAbxj/Wt+5P4ldI8+iV7ZgMztdHTZRWPQVzsayGxM/ZcZX+CnnOiUKERqTQrNxCBOUc7YtACkoM6xb4F9sJ/eGKxTnr4ezwp1bDZdgF2uGgbrrUgAxj8ZYrNdulDslkDIhZe4EOTamIvRE0UAgaZGY99+jJt9Fk+1QTj9/3yvS6o3JHv78ax4Q7GgU5X8zhFdvG0IzihtvfDII75CuljDKBaxDXvlPNPfvgg0oZuTz9/0ixKhvzft+N8HiRxYWFhYWFhYeC5LLexfh4SApypbl4mtIt9Io48uE5wKSpsLt0ciWtnKCpJmZCLIN6he/8sJeEwPTKGa34mNkjqyIXxVeedEEoEhRf0OVPDIP6otLnM/FWRMQUiP9JuS8nuUIs9fmf5kLTQAw75FXXAdUXjQJdNQ7pjUN0UjBiaO4BdpHvelUfBpiH7CKBgb2FEVjAG4UdQQ6Bs4AbgvOFEA5ROEfh2oS5x5wfd0EeLqbXHpxESomK2z7DPLK/AjMs3G7BtZBpcBzwfUA2g7aDMIenF3g6CSJCug4ZAo0m9fQc5XUKGi8ALK36x6fQNB9SF/9akaE6ovhSrHK88IIR8qqRhAeqpWH0KpmaisLNTCGYGU4k+ajeTOFobahWVe9D1k3f2QdOn0f5ENbdd2fDoMS+x68bidOtttetZN937EyUJmz3kFd7Itq/mkVnxzObQKmy1gZmTtWbTWR5LoksWX7PujWLnawblM3DcLO4U7wHIOgV/5kQJF7XfCjP6ErCoX5pY8EhMA9M5qIlQ2JMM7CdJ903o8hemlrAmvfHQC0P/cdZ2M80Ih1wLQA8iSj5avrTob0m8XAw7VYw1jnNZJBX+d9XhjXGtYQDu5Yk3HLWBpRGRcqw85UuD2jU6X8SPQlOEZGFIi+Ibo2L/xs3f6Wi/FJhoYb45NgHt/aHALGKJfmn5InzPSTxgHMSkbkUJYlMx7VKRkFYZ5wDLyUpAy4ec7MJ0z7I0BZeXsL4eNxGseaq7D8m7Z92Lqk1HcW6s4c5jvlBum/nO9wa9Zk/S9tjTTzYlIs8+IrDvET50muCD8DSVFq37sQDwZZL3GThYWFhYUHItlvOv/id/xjA8IC9X00BF/5iqR+rt3U2Plksup6GFM//fhNH0PeHpR6aMj4SVRjjrgC98ykaI4ulrrPzYcyrRVUEqQGWvd+AHbWjwnkZiZYVVCU4GiMc631/iSh0M81dSAdQquP9sfuNVnrsid2bAvtkMkFEQfcg9ElI5pj13UNaQHjuD/5VfugqqRGRMY06fZ65+pHqvJtkDSTI4re30ftTmVZrVxVs1K3c2QpyudWwCPwXZlO88kNXYKQzO/3URQjUJg72iOlaR3jXpOs/LHqfAtz/ITwFPXv7bd3N1XucpKqsiybZrDYkEMxwl6TcW5EtIhcnPqsPmtSdG5PaDbW014T78nOJBzibPO5DC+/qcq+7wBW+0UMywdYrecTb0aTulN0NVuldlf79dMXTbpRDAQsHWSzJnz4obp8F6d4bJPePr9T7KsNfHLdIWADU31tr/h8JtD4jGCD65qnVuAVeRoT1dl2luIQCWr6TiSSdO4187nBp+Iibj+f86repC2wi+OrVcWTxG0ZrSoz3KAuSONsC6Dr1hUg20JUnFdtm0e5UwBxietAwuavY8+WCuFyfQfP5wHDr26r6P54BfQDyJmDIfnIgt+z4LMl+dxCs6t1QFrvduprqtTfGK4m8YnpYLG9F8PquP9Dni3jwVKcP3TsttXqZDk2+3B6sWwO2RhIfbJEm1dD1Ca9Pl98V3B7Og1+rB09W47t0T5bXrr5+UPH8ag8W475KFh4shzmLdh9sbShd60JLjKU/dVCz//CdeaAzyxvP/Wu5YOvAZFe9R23R9HjKHInLn2scBHSr3Od7NfQJfpOx/nonDUJ1hHy3wbxi3mdcPD+pXW+z3jRRFQRGm9tHZ41qdIxB9USCDoHurEbjTPzx7E2fa3zHaCdnH8yjms0opJQgMtYN/pdmxSzBZsrmVABKAGhC4HfjepnK/mHHDQh4QZ1t+NGRhMnpl0Om5iDQgwQx6G56CHJN+AOlMW0QRqoRiCjhnu28Og8dCVtLTDvG+k1ZLKBrhyYzDsV9CFm04/W8U8habrPu1W/F/YpssSvIM3B69YQawYbGyofyCTsFRlbLvsiGGLCs52Z7nCZtmJyzWh/jhAYj045ix2yMpp4NsRBVyuIJfDVj9bxTyHp0E7Iej8QVqSyp3tNqpr36kUTMwe0VyJTeZ47Tde5uYqTcTTPuNhahT5qIvu2mhx81CTK66KGqm/HB28nHULqvSxkM27nmenNrEk5Zu1Jkzyb0+WM+0CrnRZ6NFPjw9xZRPu+M2uCjRsSG6NJs9dkox2jSYJy98HbSf1Jvkd3vzEyy2GycyR8Bjsb2hFH+7xAbMtZRG1NJj/YAd8w2TsiDvaaVCpJwtHuNi7ZMsonCUjB2gcdmkn2T1Ttr0k+G8Y7ava9BYeWOhaUNlgUJJNqHmabK41SEmiRFIyY7iKVYgmpBDBzIeIsMW9RktdEGcZYKNsYbSNX0P5AzZ4AZ/jtw+O38H7RZGFh4ffxjy35fwdJ3j7ZitT/D/GR9zDh14eBjhsU0qULXeOEu+0HM+PfSWKHaFJf2ov0LyJCtBtvLXbR2ouzX3Xk+gIaRkg5b/wKU03ge/co0EMQ5BNSt/K2MwSYha0NJAzDQkBOgRXzWlrIoGEJaYMklInxSwScNpRzVpWwDZwwbMNKFE8+9xM52ry9I4IYU2ATz3tKJ2kPOWxs4g1Qrpg7cTYmJeIYaYHHeY9FIVcS0o6HvRNU5u+XMqcm4ZmDhVonw3HJqTlbjtsr+flDL2ujZ8tpbfQFdagvdk8W6+BZSXF41rYDQvo6Fqk2kT3ncuBxQ2Pe9C6smnbs4ZAUkdVk1XM8DQ0dVqKqAfI6mA7jwPlcnB3x4K+v9CQ6ER8s9nCyHNfQ2cngvayhny3h4X+uvNPXHHWzzpbjGro6WaKDhY4Hy9CvENqF10Nbsd5h2at621DkKy0hLn3Wi2EvMFNhWHM81DnrtKjn2FvKhuSsybZWw18fGA3OHAz4bDi2P/KR5VgR8ZHl2Lfp2XIYwyYHC+XdxriU179WOjljbh4DajpCkSbxWPAhObaT1BOj0aRIx1yLVgGsfXtFz5r0xv/88QH0xwGrCfnXDR1bI+fjJqlD4SOHek0yKkCZ4BG0se1oJpGbdBx7VPfBIOyJB6sS4pqWOjB6GU2GgKThkw6TkyZEq7cDN2GlqRLQjBljmmRZZjrWaC43yjiOLK3AGQmubKxI0WLzPpnOe9hEnY2mU/IWQ5BmmfWk00w73OzaZYB/QVCvkPVse/H+T3CQmunOvUvxSCSyRlH1W2c0t8BGkbhYpsSXkA49+4Tk+1k6zcLCwsLCwsKDkfBlLvwK7m8ntcyHL3AyNFUKbbtlMHuAOCkaKjPXEe2A/M/SFvwGEuajvji2D7r2UP3rc01xjVB5ESWlBULdr711s4FID73NZpF7KLrZg/zNP39pErJHaXHjBeLq69v0Hon750rp8sck6wxp+c7aAi171L3O/Mgj1hHgdS0lU7PX4Wq+RXhdh9hRc97hyjSjSkLVgFQg1nVdf9/SBfn/Ee6AIvnBJYbIafdqJbP2mxWF3KfYQrLY0iBiticBcZGs1kHsQmSa0ZDDIEmKoIgCx/u2UOYP5ei+1WuuUMbbXvyiReRAV+zzuljjnIY7Hx07rPHGVJw0Tabm21lDn0PPy26aU1uI/ts0Sdz/n8KKp/DDy4szJ3K4rBNDVa6jvSbzfofaCnVrtWzWROixGs6aMN+NQQ6VtXmykHcQom39bpkdf4Py61dbXbIW4VM7KY6ZgLYBlH0C2mhS7jXRddhMAF3H4ifTxDR4a4OyW6fdEjtDq9er3cF+e8aQr5WRBzlsI4LJDVIGyLhUz8lj37woSFSB9kSzMf4EaPR0mhwG8/XroQiWI+rzN1eMYJ/lws25aQyWUvOhbF6PBYHZ3o4VHe1qPmo8ybwAGpKwMV//lEvmgbtC/tXlRfrIKz6ZCoYfJLz5F+7kStcIpafxqRnGoZt337nig+Tk+O+3Ij0URYS8ORG1YB7ST5Yu7H9jHsx3jGmUukuk4IQoPfT+UP+3gtnbrdMLCwsLCwsLC3eFLmuAr6B5r8tlGHtB0vZziFbn9y7IwyDy3Uvgerte9sjCnMrwKpw/uU8YMPxeqBpeL3IM1a/2K0J5t5Z+PHXjvSwzCup//JZfmKr3V8SsNz3IXUHij/co6M/Bw937khjyV03CjYH1plc566IBsnbmn4CuDRSoO98hzV6vOVCZ4CIAlwIuKbj7FG3CXRefLjven6aePlRk7kH11SjO9ex5Xwb33GqgFKWYdHMGUMYiCbqWnkuGooio7LCck4Y6IDYcUEC2HaiMV+hLxSWR97+z+biNvDBeXJld5PUBYNUCHnOx8kTT70CmGKfSGUxz0AITFlM+JvO9vzdGk5jDhobZCEY1Z/M1TWr//+emb33NcJnj3vWgU0DmuzxYNdVdyfwhkSkhKXeN+w28ACyvTnid1+qkyeSO7txOZL77kiY/gr3+tKV4V0vosz+xPZnMGUCVRXWe+nl00ERKjcGZ7xJPe8Yzj9YnTbYjYx2QnR9+re/8EEH7sSSvFwPnvKbWBIVHnK1DexpldpzIjJBMYuNAdG13RHiSoxZ8BlsbcOwA6ghLoerB2d6nln+Mit7tNW9TcbM5VWqXQxUZV0t9EraiS7giWHHgfaQS88pQgaNFYnGIBvNnJYxnkaHTY7D1z1fv7xB5f0sR/T0JuJr+OcMP8yL6az/CvqkqjvecmpjhbLm5VGRi37Y8mpAnXkXL9Ysi6T++2/MPEOVelXFR5BLBPM9e4kkLCwsLCwsLCwsLC9/Cf0tSV18Bu9iwAAAAAElFTkSuQmCC;" vertex="1" parent="1">
          <mxGeometry y="986" width="275" height="183" as="geometry" />
        </mxCell>
        <mxCell id="sTEcWktnqmlNov8V5_Up-6" value="- private&lt;div&gt;+ public&lt;/div&gt;&lt;div&gt;# protected&lt;/div&gt;&lt;div&gt;&lt;br&gt;&lt;/div&gt;&lt;div&gt;(~ package/internal)&lt;/div&gt;" style="text;html=1;align=center;verticalAlign=middle;resizable=0;points=[];autosize=1;strokeColor=none;fillColor=none;" vertex="1" parent="1">
          <mxGeometry x="275" y="1079" width="130" height="90" as="geometry" />
        </mxCell>
        <mxCell id="sTEcWktnqmlNov8V5_Up-7" value="&lt;p style=&quot;margin:0px;margin-top:4px;text-align:center;&quot;&gt;&lt;b&gt;Provider&lt;/b&gt;&lt;/p&gt;&lt;hr size=&quot;1&quot; style=&quot;border-style:solid;&quot;&gt;&lt;p style=&quot;margin:0px;margin-left:4px;&quot;&gt;+ field: Type&lt;/p&gt;&lt;hr size=&quot;1&quot; style=&quot;border-style:solid;&quot;&gt;&lt;p style=&quot;margin:0px;margin-left:4px;&quot;&gt;+ method(): Type&lt;/p&gt;" style="verticalAlign=top;align=left;overflow=fill;html=1;whiteSpace=wrap;" vertex="1" parent="1">
          <mxGeometry x="614" y="60" width="160" height="90" as="geometry" />
        </mxCell>
        <mxCell id="sTEcWktnqmlNov8V5_Up-9" style="edgeStyle=none;rounded=0;orthogonalLoop=1;jettySize=auto;html=1;" edge="1" parent="1" source="sTEcWktnqmlNov8V5_Up-8" target="sTEcWktnqmlNov8V5_Up-7">
          <mxGeometry relative="1" as="geometry" />
        </mxCell>
        <mxCell id="sTEcWktnqmlNov8V5_Up-8" value="&lt;p style=&quot;margin:0px;margin-top:4px;text-align:center;&quot;&gt;&lt;b&gt;User&lt;/b&gt;&lt;/p&gt;&lt;hr size=&quot;1&quot; style=&quot;border-style:solid;&quot;&gt;&lt;p style=&quot;margin:0px;margin-left:4px;&quot;&gt;&lt;/p&gt;&lt;p style=&quot;margin:0px;margin-left:4px;&quot;&gt;&lt;br&gt;&lt;/p&gt;" style="verticalAlign=top;align=left;overflow=fill;html=1;whiteSpace=wrap;" vertex="1" parent="1">
          <mxGeometry x="234" y="60" width="160" height="90" as="geometry" />
        </mxCell>
        <mxCell id="sTEcWktnqmlNov8V5_Up-10" value="комментарий" style="text;html=1;align=center;verticalAlign=middle;resizable=0;points=[];autosize=1;strokeColor=none;fillColor=none;" vertex="1" parent="1">
          <mxGeometry x="448" y="78" width="100" height="30" as="geometry" />
        </mxCell>
        <mxCell id="sTEcWktnqmlNov8V5_Up-11" value="1..10" style="text;html=1;align=center;verticalAlign=middle;resizable=0;points=[];autosize=1;strokeColor=none;fillColor=none;" vertex="1" parent="1">
          <mxGeometry x="394" y="108" width="50" height="30" as="geometry" />
        </mxCell>
        <mxCell id="sTEcWktnqmlNov8V5_Up-12" value="0..1000000" style="text;html=1;align=center;verticalAlign=middle;resizable=0;points=[];autosize=1;strokeColor=none;fillColor=none;" vertex="1" parent="1">
          <mxGeometry x="534" y="108" width="80" height="30" as="geometry" />
        </mxCell>
        <mxCell id="sTEcWktnqmlNov8V5_Up-13" value="класс User использует метод класса Provider" style="text;html=1;align=center;verticalAlign=middle;resizable=0;points=[];autosize=1;strokeColor=none;fillColor=none;" vertex="1" parent="1">
          <mxGeometry x="363" y="170" width="270" height="30" as="geometry" />
        </mxCell>
        <mxCell id="sTEcWktnqmlNov8V5_Up-14" value="&lt;p style=&quot;margin:0px;margin-top:4px;text-align:center;&quot;&gt;&lt;b&gt;Parent&lt;/b&gt;&lt;/p&gt;&lt;hr size=&quot;1&quot; style=&quot;border-style:solid;&quot;&gt;&lt;p style=&quot;margin:0px;margin-left:4px;&quot;&gt;&lt;br&gt;&lt;/p&gt;" style="verticalAlign=top;align=left;overflow=fill;html=1;whiteSpace=wrap;" vertex="1" parent="1">
          <mxGeometry x="40" y="260" width="160" height="50" as="geometry" />
        </mxCell>
        <mxCell id="sTEcWktnqmlNov8V5_Up-16" style="edgeStyle=none;rounded=0;orthogonalLoop=1;jettySize=auto;html=1;entryX=0.5;entryY=1;entryDx=0;entryDy=0;endArrow=block;endFill=0;" edge="1" parent="1" source="sTEcWktnqmlNov8V5_Up-15" target="sTEcWktnqmlNov8V5_Up-14">
          <mxGeometry relative="1" as="geometry" />
        </mxCell>
        <mxCell id="sTEcWktnqmlNov8V5_Up-15" value="&lt;p style=&quot;margin:0px;margin-top:4px;text-align:center;&quot;&gt;&lt;b style=&quot;text-align: left;&quot;&gt;Child&lt;/b&gt;&lt;br&gt;&lt;/p&gt;&lt;hr size=&quot;1&quot; style=&quot;border-style:solid;&quot;&gt;&lt;p style=&quot;margin:0px;margin-left:4px;&quot;&gt;&lt;br&gt;&lt;/p&gt;" style="verticalAlign=top;align=left;overflow=fill;html=1;whiteSpace=wrap;" vertex="1" parent="1">
          <mxGeometry x="40" y="350" width="160" height="50" as="geometry" />
        </mxCell>
        <mxCell id="sTEcWktnqmlNov8V5_Up-19" style="edgeStyle=none;rounded=0;orthogonalLoop=1;jettySize=auto;html=1;dashed=1;" edge="1" parent="1" source="sTEcWktnqmlNov8V5_Up-17" target="sTEcWktnqmlNov8V5_Up-18">
          <mxGeometry relative="1" as="geometry" />
        </mxCell>
        <mxCell id="sTEcWktnqmlNov8V5_Up-17" value="&lt;p style=&quot;margin:0px;margin-top:4px;text-align:center;&quot;&gt;&lt;b&gt;Order&lt;/b&gt;&lt;/p&gt;&lt;hr size=&quot;1&quot; style=&quot;border-style:solid;&quot;&gt;&lt;p style=&quot;margin:0px;margin-left:4px;&quot;&gt;&lt;/p&gt;&lt;p style=&quot;margin:0px;margin-left:4px;&quot;&gt;+ processOrder(c: Customer): Void&lt;/p&gt;" style="verticalAlign=top;align=left;overflow=fill;html=1;whiteSpace=wrap;" vertex="1" parent="1">
          <mxGeometry x="239" y="260" width="200" height="60" as="geometry" />
        </mxCell>
        <mxCell id="sTEcWktnqmlNov8V5_Up-18" value="&lt;p style=&quot;margin:0px;margin-top:4px;text-align:center;&quot;&gt;&lt;b&gt;Customer&lt;/b&gt;&lt;/p&gt;&lt;hr size=&quot;1&quot; style=&quot;border-style:solid;&quot;&gt;&lt;p style=&quot;margin:0px;margin-left:4px;&quot;&gt;&lt;br&gt;&lt;/p&gt;" style="verticalAlign=top;align=left;overflow=fill;html=1;whiteSpace=wrap;" vertex="1" parent="1">
          <mxGeometry x="550" y="260" width="160" height="60" as="geometry" />
        </mxCell>
        <mxCell id="sTEcWktnqmlNov8V5_Up-20" style="edgeStyle=none;rounded=0;orthogonalLoop=1;jettySize=auto;html=1;dashed=1;" edge="1" parent="1" source="sTEcWktnqmlNov8V5_Up-21" target="sTEcWktnqmlNov8V5_Up-22">
          <mxGeometry relative="1" as="geometry" />
        </mxCell>
        <mxCell id="sTEcWktnqmlNov8V5_Up-21" value="&lt;p style=&quot;margin:0px;margin-top:4px;text-align:center;&quot;&gt;&lt;b&gt;Factory&lt;/b&gt;&lt;/p&gt;&lt;hr size=&quot;1&quot; style=&quot;border-style:solid;&quot;&gt;&lt;p style=&quot;margin:0px;margin-left:4px;&quot;&gt;+ createProduct(): Product&lt;/p&gt;" style="verticalAlign=top;align=left;overflow=fill;html=1;whiteSpace=wrap;" vertex="1" parent="1">
          <mxGeometry x="239" y="380" width="161" height="60" as="geometry" />
        </mxCell>
        <mxCell id="sTEcWktnqmlNov8V5_Up-22" value="&lt;p style=&quot;margin:0px;margin-top:4px;text-align:center;&quot;&gt;&lt;b&gt;Product&lt;/b&gt;&lt;/p&gt;&lt;hr size=&quot;1&quot; style=&quot;border-style:solid;&quot;&gt;&lt;p style=&quot;margin:0px;margin-left:4px;&quot;&gt;&lt;br&gt;&lt;/p&gt;" style="verticalAlign=top;align=left;overflow=fill;html=1;whiteSpace=wrap;" vertex="1" parent="1">
          <mxGeometry x="550" y="380" width="160" height="60" as="geometry" />
        </mxCell>
        <mxCell id="sTEcWktnqmlNov8V5_Up-23" style="edgeStyle=none;rounded=0;orthogonalLoop=1;jettySize=auto;html=1;exitX=0.5;exitY=1;exitDx=0;exitDy=0;" edge="1" parent="1" source="sTEcWktnqmlNov8V5_Up-18" target="sTEcWktnqmlNov8V5_Up-18">
          <mxGeometry relative="1" as="geometry" />
        </mxCell>
        <mxCell id="sTEcWktnqmlNov8V5_Up-26" style="edgeStyle=none;rounded=0;orthogonalLoop=1;jettySize=auto;html=1;dashed=1;" edge="1" parent="1" source="sTEcWktnqmlNov8V5_Up-24" target="sTEcWktnqmlNov8V5_Up-25">
          <mxGeometry relative="1" as="geometry" />
        </mxCell>
        <mxCell id="sTEcWktnqmlNov8V5_Up-24" value="&lt;p style=&quot;margin:0px;margin-top:4px;text-align:center;&quot;&gt;&lt;b&gt;Manager&lt;/b&gt;&lt;/p&gt;&lt;hr size=&quot;1&quot; style=&quot;border-style:solid;&quot;&gt;&lt;p style=&quot;margin:0px;margin-left:4px;&quot;&gt;+ evaluate(): void&lt;/p&gt;" style="verticalAlign=top;align=left;overflow=fill;html=1;whiteSpace=wrap;" vertex="1" parent="1">
          <mxGeometry x="239" y="480" width="160" height="60" as="geometry" />
        </mxCell>
        <mxCell id="sTEcWktnqmlNov8V5_Up-25" value="&lt;p style=&quot;margin:0px;margin-top:4px;text-align:center;&quot;&gt;&lt;b&gt;Employee&lt;/b&gt;&lt;/p&gt;&lt;hr size=&quot;1&quot; style=&quot;border-style:solid;&quot;&gt;&lt;p style=&quot;margin:0px;margin-left:4px;&quot;&gt;&lt;br&gt;&lt;/p&gt;" style="verticalAlign=top;align=left;overflow=fill;html=1;whiteSpace=wrap;" vertex="1" parent="1">
          <mxGeometry x="550" y="480" width="160" height="60" as="geometry" />
        </mxCell>
        <mxCell id="sTEcWktnqmlNov8V5_Up-27" value="&lt;p style=&quot;margin:0px;margin-top:4px;text-align:center;&quot;&gt;&lt;b&gt;WorkPlace&lt;/b&gt;&lt;/p&gt;&lt;hr size=&quot;1&quot; style=&quot;border-style:solid;&quot;&gt;&lt;p style=&quot;margin:0px;margin-left:4px;&quot;&gt;&lt;br&gt;&lt;/p&gt;" style="verticalAlign=top;align=left;overflow=fill;html=1;whiteSpace=wrap;" vertex="1" parent="1">
          <mxGeometry x="334" y="560" width="160" height="50" as="geometry" />
        </mxCell>
        <mxCell id="sTEcWktnqmlNov8V5_Up-44" style="edgeStyle=none;rounded=0;orthogonalLoop=1;jettySize=auto;html=1;endArrow=diamondThin;endFill=0;strokeWidth=1;endSize=10;" edge="1" parent="1" source="sTEcWktnqmlNov8V5_Up-28" target="sTEcWktnqmlNov8V5_Up-27">
          <mxGeometry relative="1" as="geometry" />
        </mxCell>
        <mxCell id="sTEcWktnqmlNov8V5_Up-28" value="&lt;p style=&quot;margin:0px;margin-top:4px;text-align:center;&quot;&gt;&lt;b&gt;Chair&lt;/b&gt;&lt;span style=&quot;color: rgba(0, 0, 0, 0); font-family: monospace; font-size: 0px; text-wrap: nowrap; background-color: initial; text-align: left;&quot;&gt;%3CmxGraphModel%3E%3Croot%3E%3CmxCell%20id%3D%220%22%2F%3E%3CmxCell%20id%3D%221%22%20parent%3D%220%22%2F%3E%3CmxCell%20id%3D%222%22%20value%3D%22%26lt%3Bp%20style%3D%26quot%3Bmargin%3A0px%3Bmargin-top%3A4px%3Btext-align%3Acenter%3B%26quot%3B%26gt%3B%26lt%3Bb%26gt%3BWorkPlace%26lt%3B%2Fb%26gt%3B%26lt%3B%2Fp%26gt%3B%26lt%3Bhr%20size%3D%26quot%3B1%26quot%3B%20style%3D%26quot%3Bborder-style%3Asolid%3B%26quot%3B%26gt%3B%26lt%3Bp%20style%3D%26quot%3Bmargin%3A0px%3Bmargin-left%3A4px%3B%26quot%3B%26gt%3B%26lt%3Bbr%26gt%3B%26lt%3B%2Fp%26gt%3B%22%20style%3D%22verticalAlign%3Dtop%3Balign%3Dleft%3Boverflow%3Dfill%3Bhtml%3D1%3BwhiteSpace%3Dwrap%3B%22%20vertex%3D%221%22%20parent%3D%221%22%3E%3CmxGeometry%20x%3D%22620%22%20y%3D%221010%22%20width%3D%22160%22%20height%3D%2250%22%20as%3D%22geometry%22%2F%3E%3C%2FmxCell%3E%3C%2Froot%3E%3C%2FmxGraphModel%3E&lt;/span&gt;&lt;/p&gt;&lt;hr size=&quot;1&quot; style=&quot;border-style:solid;&quot;&gt;&lt;p style=&quot;margin:0px;margin-left:4px;&quot;&gt;&lt;br&gt;&lt;/p&gt;" style="verticalAlign=top;align=left;overflow=fill;html=1;whiteSpace=wrap;" vertex="1" parent="1">
          <mxGeometry x="14" y="689" width="160" height="50" as="geometry" />
        </mxCell>
        <mxCell id="sTEcWktnqmlNov8V5_Up-43" style="edgeStyle=none;rounded=0;orthogonalLoop=1;jettySize=auto;html=1;endArrow=diamondThin;endFill=0;strokeWidth=1;endSize=10;" edge="1" parent="1" source="sTEcWktnqmlNov8V5_Up-29" target="sTEcWktnqmlNov8V5_Up-27">
          <mxGeometry relative="1" as="geometry" />
        </mxCell>
        <mxCell id="sTEcWktnqmlNov8V5_Up-29" value="&lt;p style=&quot;margin:0px;margin-top:4px;text-align:center;&quot;&gt;&lt;b&gt;Monitor&lt;/b&gt;&lt;span style=&quot;color: rgba(0, 0, 0, 0); font-family: monospace; font-size: 0px; text-wrap: nowrap; background-color: initial; text-align: left;&quot;&gt;%3CmxGraphModel%3E%3Croot%3E%3CmxCell%20id%3D%220%22%2F%3E%3CmxCell%20id%3D%221%22%20parent%3D%220%22%2F%3E%3CmxCell%20id%3D%222%22%20value%3D%22%26lt%3Bp%20style%3D%26quot%3Bmargin%3A0px%3Bmargin-top%3A4px%3Btext-align%3Acenter%3B%26quot%3B%26gt%3B%26lt%3Bb%26gt%3BWorkPlace%26lt%3B%2Fb%26gt%3B%26lt%3B%2Fp%26gt%3B%26lt%3Bhr%20size%3D%26quot%3B1%26quot%3B%20style%3D%26quot%3Bborder-style%3Asolid%3B%26quot%3B%26gt%3B%26lt%3Bp%20style%3D%26quot%3Bmargin%3A0px%3Bmargin-left%3A4px%3B%26quot%3B%26gt%3B%26lt%3Bbr%26gt%3B%26lt%3B%2Fp%26gt%3B%22%20style%3D%22verticalAlign%3Dtop%3Balign%3Dleft%3Boverflow%3Dfill%3Bhtml%3D1%3BwhiteSpace%3Dwrap%3B%22%20vertex%3D%221%22%20parent%3D%221%22%3E%3CmxGeometry%20x%3D%22620%22%20y%3D%221010%22%20width%3D%22160%22%20height%3D%2250%22%20as%3D%22geometry%22%2F%3E%3C%2FmxCell%3E%3C%2Froot%3E%3C%2FmxGraphModel%3E&lt;/span&gt;&lt;/p&gt;&lt;hr size=&quot;1&quot; style=&quot;border-style:solid;&quot;&gt;&lt;p style=&quot;margin:0px;margin-left:4px;&quot;&gt;&lt;br&gt;&lt;/p&gt;" style="verticalAlign=top;align=left;overflow=fill;html=1;whiteSpace=wrap;" vertex="1" parent="1">
          <mxGeometry x="234" y="689" width="160" height="50" as="geometry" />
        </mxCell>
        <mxCell id="sTEcWktnqmlNov8V5_Up-41" style="edgeStyle=none;rounded=0;orthogonalLoop=1;jettySize=auto;html=1;endArrow=diamondThin;endFill=0;strokeWidth=1;endSize=10;" edge="1" parent="1" source="sTEcWktnqmlNov8V5_Up-30" target="sTEcWktnqmlNov8V5_Up-27">
          <mxGeometry relative="1" as="geometry" />
        </mxCell>
        <mxCell id="sTEcWktnqmlNov8V5_Up-30" value="&lt;p style=&quot;margin:0px;margin-top:4px;text-align:center;&quot;&gt;&lt;b&gt;Table&lt;/b&gt;&lt;span style=&quot;color: rgba(0, 0, 0, 0); font-family: monospace; font-size: 0px; text-wrap: nowrap; background-color: initial; text-align: left;&quot;&gt;%3CmxGraphModel%3E%3Croot%3E%3CmxCell%20id%3D%220%22%2F%3E%3CmxCell%20id%3D%221%22%20parent%3D%220%22%2F%3E%3CmxCell%20id%3D%222%22%20value%3D%22%26lt%3Bp%20style%3D%26quot%3Bmargin%3A0px%3Bmargin-top%3A4px%3Btext-align%3Acenter%3B%26quot%3B%26gt%3B%26lt%3Bb%26gt%3BMonitor%26lt%3B%2Fb%26gt%3B%26lt%3Bspan%20style%3D%26quot%3Bcolor%3A%20rgba(0%2C%200%2C%200%2C%200)%3B%20font-family%3A%20monospace%3B%20font-size%3A%200px%3B%20text-wrap%3A%20nowrap%3B%20background-color%3A%20initial%3B%20text-align%3A%20left%3B%26quot%3B%26gt%3B%253CmxGraphModel%253E%253Croot%253E%253CmxCell%2520id%253D%25220%2522%252F%253E%253CmxCell%2520id%253D%25221%2522%2520parent%253D%25220%2522%252F%253E%253CmxCell%2520id%253D%25222%2522%2520value%253D%2522%2526lt%253Bp%2520style%253D%2526quot%253Bmargin%253A0px%253Bmargin-top%253A4px%253Btext-align%253Acenter%253B%2526quot%253B%2526gt%253B%2526lt%253Bb%2526gt%253BWorkPlace%2526lt%253B%252Fb%2526gt%253B%2526lt%253B%252Fp%2526gt%253B%2526lt%253Bhr%2520size%253D%2526quot%253B1%2526quot%253B%2520style%253D%2526quot%253Bborder-style%253Asolid%253B%2526quot%253B%2526gt%253B%2526lt%253Bp%2520style%253D%2526quot%253Bmargin%253A0px%253Bmargin-left%253A4px%253B%2526quot%253B%2526gt%253B%2526lt%253Bbr%2526gt%253B%2526lt%253B%252Fp%2526gt%253B%2522%2520style%253D%2522verticalAlign%253Dtop%253Balign%253Dleft%253Boverflow%253Dfill%253Bhtml%253D1%253BwhiteSpace%253Dwrap%253B%2522%2520vertex%253D%25221%2522%2520parent%253D%25221%2522%253E%253CmxGeometry%2520x%253D%2522620%2522%2520y%253D%25221010%2522%2520width%253D%2522160%2522%2520height%253D%252250%2522%2520as%253D%2522geometry%2522%252F%253E%253C%252FmxCell%253E%253C%252Froot%253E%253C%252FmxGraphModel%253E%26lt%3B%2Fspan%26gt%3B%26lt%3B%2Fp%26gt%3B%26lt%3Bhr%20size%3D%26quot%3B1%26quot%3B%20style%3D%26quot%3Bborder-style%3Asolid%3B%26quot%3B%26gt%3B%26lt%3Bp%20style%3D%26quot%3Bmargin%3A0px%3Bmargin-left%3A4px%3B%26quot%3B%26gt%3B%26lt%3Bbr%26gt%3B%26lt%3B%2Fp%26gt%3B%22%20style%3D%22verticalAlign%3Dtop%3Balign%3Dleft%3Boverflow%3Dfill%3Bhtml%3D1%3BwhiteSpace%3Dwrap%3B%22%20vertex%3D%221%22%20parent%3D%221%22%3E%3CmxGeometry%20x%3D%22620%22%20y%3D%221119%22%20width%3D%22160%22%20height%3D%2250%22%20as%3D%22geometry%22%2F%3E%3C%2FmxCell%3E%3C%2Froot%3E%3C%2FmxGraphModel%3E&lt;/span&gt;&lt;span style=&quot;background-color: initial; color: rgba(0, 0, 0, 0); font-family: monospace; font-size: 0px; text-align: left; text-wrap: nowrap;&quot;&gt;%3CmxGraphModel%3E%3Croot%3E%3CmxCell%20id%3D%220%22%2F%3E%3CmxCell%20id%3D%221%22%20parent%3D%220%22%2F%3E%3CmxCell%20id%3D%222%22%20value%3D%22%26lt%3Bp%20style%3D%26quot%3Bmargin%3A0px%3Bmargin-top%3A4px%3Btext-align%3Acenter%3B%26quot%3B%26gt%3B%26lt%3Bb%26gt%3BWorkPlace%26lt%3B%2Fb%26gt%3B%26lt%3B%2Fp%26gt%3B%26lt%3Bhr%20size%3D%26quot%3B1%26quot%3B%20style%3D%26quot%3Bborder-style%3Asolid%3B%26quot%3B%26gt%3B%26lt%3Bp%20style%3D%26quot%3Bmargin%3A0px%3Bmargin-left%3A4px%3B%26quot%3B%26gt%3B%26lt%3Bbr%26gt%3B%26lt%3B%2Fp%26gt%3B%22%20style%3D%22verticalAlign%3Dtop%3Balign%3Dleft%3Boverflow%3Dfill%3Bhtml%3D1%3BwhiteSpace%3Dwrap%3B%22%20vertex%3D%221%22%20parent%3D%221%22%3E%3CmxGeometry%20x%3D%22620%22%20y%3D%221010%22%20width%3D%22160%22%20height%3D%2250%22%20as%3D%22geometry%22%2F%3E%3C%2FmxCell%3E%3C%2Froot%3E%3C%2FmxGraphModel%3E&lt;/span&gt;&lt;/p&gt;&lt;hr size=&quot;1&quot; style=&quot;border-style:solid;&quot;&gt;&lt;p style=&quot;margin:0px;margin-left:4px;&quot;&gt;&lt;br&gt;&lt;/p&gt;" style="verticalAlign=top;align=left;overflow=fill;html=1;whiteSpace=wrap;" vertex="1" parent="1">
          <mxGeometry x="454" y="689" width="160" height="50" as="geometry" />
        </mxCell>
        <mxCell id="sTEcWktnqmlNov8V5_Up-42" style="edgeStyle=none;rounded=0;orthogonalLoop=1;jettySize=auto;html=1;endArrow=diamondThin;endFill=0;strokeWidth=1;endSize=10;" edge="1" parent="1" source="sTEcWktnqmlNov8V5_Up-31" target="sTEcWktnqmlNov8V5_Up-27">
          <mxGeometry relative="1" as="geometry" />
        </mxCell>
        <mxCell id="sTEcWktnqmlNov8V5_Up-31" value="&lt;p style=&quot;margin:0px;margin-top:4px;text-align:center;&quot;&gt;&lt;b&gt;PC&lt;/b&gt;&lt;span style=&quot;color: rgba(0, 0, 0, 0); font-family: monospace; font-size: 0px; text-wrap: nowrap; background-color: initial; text-align: left;&quot;&gt;%3CmxGraphModel%3E%3Croot%3E%3CmxCell%20id%3D%220%22%2F%3E%3CmxCell%20id%3D%221%22%20parent%3D%220%22%2F%3E%3CmxCell%20id%3D%222%22%20value%3D%22%26lt%3Bp%20style%3D%26quot%3Bmargin%3A0px%3Bmargin-top%3A4px%3Btext-align%3Acenter%3B%26quot%3B%26gt%3B%26lt%3Bb%26gt%3BWorkPlace%26lt%3B%2Fb%26gt%3B%26lt%3B%2Fp%26gt%3B%26lt%3Bhr%20size%3D%26quot%3B1%26quot%3B%20style%3D%26quot%3Bborder-style%3Asolid%3B%26quot%3B%26gt%3B%26lt%3Bp%20style%3D%26quot%3Bmargin%3A0px%3Bmargin-left%3A4px%3B%26quot%3B%26gt%3B%26lt%3Bbr%26gt%3B%26lt%3B%2Fp%26gt%3B%22%20style%3D%22verticalAlign%3Dtop%3Balign%3Dleft%3Boverflow%3Dfill%3Bhtml%3D1%3BwhiteSpace%3Dwrap%3B%22%20vertex%3D%221%22%20parent%3D%221%22%3E%3CmxGeometry%20x%3D%22620%22%20y%3D%221010%22%20width%3D%22160%22%20height%3D%2250%22%20as%3D%22geometry%22%2F%3E%3C%2FmxCell%3E%3C%2Froot%3E%3C%2FmxGraphModel%3E&lt;/span&gt;&lt;/p&gt;&lt;hr size=&quot;1&quot; style=&quot;border-style:solid;&quot;&gt;&lt;p style=&quot;margin:0px;margin-left:4px;&quot;&gt;&lt;br&gt;&lt;/p&gt;" style="verticalAlign=top;align=left;overflow=fill;html=1;whiteSpace=wrap;" vertex="1" parent="1">
          <mxGeometry x="654" y="689" width="160" height="50" as="geometry" />
        </mxCell>
        <mxCell id="sTEcWktnqmlNov8V5_Up-49" value="&lt;p style=&quot;margin:0px;margin-top:4px;text-align:center;&quot;&gt;&lt;b&gt;HumanBody&lt;/b&gt;&lt;/p&gt;&lt;hr size=&quot;1&quot; style=&quot;border-style:solid;&quot;&gt;&lt;p style=&quot;margin:0px;margin-left:4px;&quot;&gt;&lt;br&gt;&lt;/p&gt;" style="verticalAlign=top;align=left;overflow=fill;html=1;whiteSpace=wrap;" vertex="1" parent="1">
          <mxGeometry x="339" y="760" width="160" height="50" as="geometry" />
        </mxCell>
        <mxCell id="sTEcWktnqmlNov8V5_Up-58" style="edgeStyle=none;rounded=0;orthogonalLoop=1;jettySize=auto;html=1;endArrow=diamondThin;endFill=1;endSize=10;" edge="1" parent="1" source="sTEcWktnqmlNov8V5_Up-50" target="sTEcWktnqmlNov8V5_Up-49">
          <mxGeometry relative="1" as="geometry" />
        </mxCell>
        <mxCell id="sTEcWktnqmlNov8V5_Up-50" value="&lt;p style=&quot;margin:0px;margin-top:4px;text-align:center;&quot;&gt;&lt;b&gt;Brain&lt;/b&gt;&lt;span style=&quot;color: rgba(0, 0, 0, 0); font-family: monospace; font-size: 0px; text-wrap: nowrap; background-color: initial; text-align: left;&quot;&gt;%3CmxGraphModel%3E%3Croot%3E%3CmxCell%20id%3D%220%22%2F%3E%3CmxCell%20id%3D%221%22%20parent%3D%220%22%2F%3E%3CmxCell%20id%3D%222%22%20value%3D%22%26lt%3Bp%20style%3D%26quot%3Bmargin%3A0px%3Bmargin-top%3A4px%3Btext-align%3Acenter%3B%26quot%3B%26gt%3B%26lt%3Bb%26gt%3BHumanBody%26lt%3B%2Fb%26gt%3B%26lt%3B%2Fp%26gt%3B%26lt%3Bhr%20size%3D%26quot%3B1%26quot%3B%20style%3D%26quot%3Bborder-style%3Asolid%3B%26quot%3B%26gt%3B%26lt%3Bp%20style%3D%26quot%3Bmargin%3A0px%3Bmargin-left%3A4px%3B%26quot%3B%26gt%3B%26lt%3Bbr%26gt%3B%26lt%3B%2Fp%26gt%3B%22%20style%3D%22verticalAlign%3Dtop%3Balign%3Dleft%3Boverflow%3Dfill%3Bhtml%3D1%3BwhiteSpace%3Dwrap%3B%22%20vertex%3D%221%22%20parent%3D%221%22%3E%3CmxGeometry%20x%3D%22234%22%20y%3D%22780%22%20width%3D%22160%22%20height%3D%2250%22%20as%3D%22geometry%22%2F%3E%3C%2FmxCell%3E%3C%2Froot%3E%3C%2FmxGraphModel%3E&lt;/span&gt;&lt;/p&gt;&lt;hr size=&quot;1&quot; style=&quot;border-style:solid;&quot;&gt;&lt;p style=&quot;margin:0px;margin-left:4px;&quot;&gt;&lt;br&gt;&lt;/p&gt;" style="verticalAlign=top;align=left;overflow=fill;html=1;whiteSpace=wrap;" vertex="1" parent="1">
          <mxGeometry x="654" y="890" width="160" height="50" as="geometry" />
        </mxCell>
        <mxCell id="sTEcWktnqmlNov8V5_Up-55" style="edgeStyle=none;rounded=0;orthogonalLoop=1;jettySize=auto;html=1;endArrow=diamondThin;endFill=1;endSize=10;" edge="1" parent="1" source="sTEcWktnqmlNov8V5_Up-51" target="sTEcWktnqmlNov8V5_Up-49">
          <mxGeometry relative="1" as="geometry" />
        </mxCell>
        <mxCell id="sTEcWktnqmlNov8V5_Up-51" value="&lt;p style=&quot;margin:0px;margin-top:4px;text-align:center;&quot;&gt;&lt;b&gt;Skin&lt;/b&gt;&lt;span style=&quot;color: rgba(0, 0, 0, 0); font-family: monospace; font-size: 0px; text-wrap: nowrap; background-color: initial; text-align: left;&quot;&gt;%3CmxGraphModel%3E%3Croot%3E%3CmxCell%20id%3D%220%22%2F%3E%3CmxCell%20id%3D%221%22%20parent%3D%220%22%2F%3E%3CmxCell%20id%3D%222%22%20value%3D%22%26lt%3Bp%20style%3D%26quot%3Bmargin%3A0px%3Bmargin-top%3A4px%3Btext-align%3Acenter%3B%26quot%3B%26gt%3B%26lt%3Bb%26gt%3BHumanBody%26lt%3B%2Fb%26gt%3B%26lt%3B%2Fp%26gt%3B%26lt%3Bhr%20size%3D%26quot%3B1%26quot%3B%20style%3D%26quot%3Bborder-style%3Asolid%3B%26quot%3B%26gt%3B%26lt%3Bp%20style%3D%26quot%3Bmargin%3A0px%3Bmargin-left%3A4px%3B%26quot%3B%26gt%3B%26lt%3Bbr%26gt%3B%26lt%3B%2Fp%26gt%3B%22%20style%3D%22verticalAlign%3Dtop%3Balign%3Dleft%3Boverflow%3Dfill%3Bhtml%3D1%3BwhiteSpace%3Dwrap%3B%22%20vertex%3D%221%22%20parent%3D%221%22%3E%3CmxGeometry%20x%3D%22234%22%20y%3D%22780%22%20width%3D%22160%22%20height%3D%2250%22%20as%3D%22geometry%22%2F%3E%3C%2FmxCell%3E%3C%2Froot%3E%3C%2FmxGraphModel%3E&lt;/span&gt;&lt;/p&gt;&lt;hr size=&quot;1&quot; style=&quot;border-style:solid;&quot;&gt;&lt;p style=&quot;margin:0px;margin-left:4px;&quot;&gt;&lt;br&gt;&lt;/p&gt;" style="verticalAlign=top;align=left;overflow=fill;html=1;whiteSpace=wrap;" vertex="1" parent="1">
          <mxGeometry x="50" y="890" width="160" height="50" as="geometry" />
        </mxCell>
        <mxCell id="sTEcWktnqmlNov8V5_Up-57" style="edgeStyle=none;rounded=0;orthogonalLoop=1;jettySize=auto;html=1;endArrow=diamondThin;endFill=1;endSize=10;" edge="1" parent="1" source="sTEcWktnqmlNov8V5_Up-52" target="sTEcWktnqmlNov8V5_Up-49">
          <mxGeometry relative="1" as="geometry" />
        </mxCell>
        <mxCell id="sTEcWktnqmlNov8V5_Up-52" value="&lt;p style=&quot;margin:0px;margin-top:4px;text-align:center;&quot;&gt;&lt;b style=&quot;background-color: initial;&quot;&gt;Heart&lt;/b&gt;&lt;span style=&quot;color: rgba(0, 0, 0, 0); font-family: monospace; font-size: 0px; text-wrap: nowrap; background-color: initial; text-align: left;&quot;&gt;%3CmxGraphModel%3E%3Croot%3E%3CmxCell%20id%3D%220%22%2F%3E%3CmxCell%20id%3D%221%22%20parent%3D%220%22%2F%3E%3CmxCell%20id%3D%222%22%20value%3D%22%26lt%3Bp%20style%3D%26quot%3Bmargin%3A0px%3Bmargin-top%3A4px%3Btext-align%3Acenter%3B%26quot%3B%26gt%3B%26lt%3Bb%26gt%3BHumanBody%26lt%3B%2Fb%26gt%3B%26lt%3B%2Fp%26gt%3B%26lt%3Bhr%20size%3D%26quot%3B1%26quot%3B%20style%3D%26quot%3Bborder-style%3Asolid%3B%26quot%3B%26gt%3B%26lt%3Bp%20style%3D%26quot%3Bmargin%3A0px%3Bmargin-left%3A4px%3B%26quot%3B%26gt%3B%26lt%3Bbr%26gt%3B%26lt%3B%2Fp%26gt%3B%22%20style%3D%22verticalAlign%3Dtop%3Balign%3Dleft%3Boverflow%3Dfill%3Bhtml%3D1%3BwhiteSpace%3Dwrap%3B%22%20vertex%3D%221%22%20parent%3D%221%22%3E%3CmxGeometry%20x%3D%22234%22%20y%3D%22780%22%20width%3D%22160%22%20height%3D%2250%22%20as%3D%22geometry%22%2F%3E%3C%2FmxCell%3E%3C%2Froot%3E%3C%2FmxGraphModel%3E&lt;/span&gt;&lt;/p&gt;&lt;hr size=&quot;1&quot; style=&quot;border-style:solid;&quot;&gt;&lt;p style=&quot;margin:0px;margin-left:4px;&quot;&gt;&lt;br&gt;&lt;/p&gt;" style="verticalAlign=top;align=left;overflow=fill;html=1;whiteSpace=wrap;" vertex="1" parent="1">
          <mxGeometry x="439" y="890" width="160" height="50" as="geometry" />
        </mxCell>
        <mxCell id="sTEcWktnqmlNov8V5_Up-56" style="edgeStyle=none;rounded=0;orthogonalLoop=1;jettySize=auto;html=1;endArrow=diamondThin;endFill=1;endSize=10;" edge="1" parent="1" source="sTEcWktnqmlNov8V5_Up-53" target="sTEcWktnqmlNov8V5_Up-49">
          <mxGeometry relative="1" as="geometry" />
        </mxCell>
        <mxCell id="sTEcWktnqmlNov8V5_Up-53" value="&lt;p style=&quot;margin:0px;margin-top:4px;text-align:center;&quot;&gt;&lt;b style=&quot;background-color: initial;&quot;&gt;Stomach&lt;/b&gt;&lt;span style=&quot;color: rgba(0, 0, 0, 0); font-family: monospace; font-size: 0px; text-wrap: nowrap; background-color: initial; text-align: left;&quot;&gt;%3CmxGraphModel%3E%3Croot%3E%3CmxCell%20id%3D%220%22%2F%3E%3CmxCell%20id%3D%221%22%20parent%3D%220%22%2F%3E%3CmxCell%20id%3D%222%22%20value%3D%22%26lt%3Bp%20style%3D%26quot%3Bmargin%3A0px%3Bmargin-top%3A4px%3Btext-align%3Acenter%3B%26quot%3B%26gt%3B%26lt%3Bb%26gt%3BHumanBody%26lt%3B%2Fb%26gt%3B%26lt%3B%2Fp%26gt%3B%26lt%3Bhr%20size%3D%26quot%3B1%26quot%3B%20style%3D%26quot%3Bborder-style%3Asolid%3B%26quot%3B%26gt%3B%26lt%3Bp%20style%3D%26quot%3Bmargin%3A0px%3Bmargin-left%3A4px%3B%26quot%3B%26gt%3B%26lt%3Bbr%26gt%3B%26lt%3B%2Fp%26gt%3B%22%20style%3D%22verticalAlign%3Dtop%3Balign%3Dleft%3Boverflow%3Dfill%3Bhtml%3D1%3BwhiteSpace%3Dwrap%3B%22%20vertex%3D%221%22%20parent%3D%221%22%3E%3CmxGeometry%20x%3D%22234%22%20y%3D%22780%22%20width%3D%22160%22%20height%3D%2250%22%20as%3D%22geometry%22%2F%3E%3C%2FmxCell%3E%3C%2Froot%3E%3C%2FmxGraphModel%3E&lt;/span&gt;&lt;/p&gt;&lt;hr size=&quot;1&quot; style=&quot;border-style:solid;&quot;&gt;&lt;p style=&quot;margin:0px;margin-left:4px;&quot;&gt;&lt;br&gt;&lt;/p&gt;" style="verticalAlign=top;align=left;overflow=fill;html=1;whiteSpace=wrap;" vertex="1" parent="1">
          <mxGeometry x="239" y="890" width="160" height="50" as="geometry" />
        </mxCell>
        <mxCell id="sTEcWktnqmlNov8V5_Up-54" style="edgeStyle=none;rounded=0;orthogonalLoop=1;jettySize=auto;html=1;exitX=0;exitY=0.25;exitDx=0;exitDy=0;" edge="1" parent="1" source="sTEcWktnqmlNov8V5_Up-52" target="sTEcWktnqmlNov8V5_Up-52">
          <mxGeometry relative="1" as="geometry" />
        </mxCell>
        <mxCell id="sTEcWktnqmlNov8V5_Up-59" value="статический класс" style="text;html=1;align=center;verticalAlign=middle;resizable=0;points=[];autosize=1;strokeColor=none;fillColor=none;" vertex="1" parent="1">
          <mxGeometry x="524" y="1000" width="130" height="30" as="geometry" />
        </mxCell>
        <mxCell id="sTEcWktnqmlNov8V5_Up-60" value="&lt;p style=&quot;margin:0px;margin-top:4px;text-align:center;&quot;&gt;&lt;i&gt;&amp;lt;&amp;lt;Utility&amp;gt;&amp;gt;&lt;/i&gt;&lt;br&gt;&lt;b&gt;MathParser&lt;/b&gt;&lt;/p&gt;&lt;hr size=&quot;1&quot; style=&quot;border-style:solid;&quot;&gt;&lt;p style=&quot;margin:0px;margin-left:4px;&quot;&gt;+ field1: Type&lt;br&gt;+ field2: Type&lt;/p&gt;&lt;hr size=&quot;1&quot; style=&quot;border-style:solid;&quot;&gt;&lt;p style=&quot;margin:0px;margin-left:4px;&quot;&gt;+ method1(Type): Type&lt;br&gt;+ method2(Type, Type): Type&lt;/p&gt;" style="verticalAlign=top;align=left;overflow=fill;html=1;whiteSpace=wrap;" vertex="1" parent="1">
          <mxGeometry x="490" y="1070" width="190" height="140" as="geometry" />
        </mxCell>
        <mxCell id="sTEcWktnqmlNov8V5_Up-61" value="абстрактный класс" style="text;html=1;align=center;verticalAlign=middle;resizable=0;points=[];autosize=1;strokeColor=none;fillColor=none;" vertex="1" parent="1">
          <mxGeometry x="528" y="1240" width="130" height="30" as="geometry" />
        </mxCell>
        <mxCell id="sTEcWktnqmlNov8V5_Up-62" value="&lt;p style=&quot;margin:0px;margin-top:4px;text-align:center;&quot;&gt;&lt;b&gt;&lt;i&gt;Human&lt;/i&gt;&lt;/b&gt;&lt;/p&gt;&lt;hr size=&quot;1&quot; style=&quot;border-style:solid;&quot;&gt;&lt;p style=&quot;margin:0px;margin-left:4px;&quot;&gt;&lt;br&gt;&lt;/p&gt;" style="verticalAlign=top;align=left;overflow=fill;html=1;whiteSpace=wrap;" vertex="1" parent="1">
          <mxGeometry x="494" y="1310" width="190" height="60" as="geometry" />
        </mxCell>
        <mxCell id="sTEcWktnqmlNov8V5_Up-65" style="edgeStyle=none;rounded=0;orthogonalLoop=1;jettySize=auto;html=1;endArrow=blockThin;endFill=0;" edge="1" parent="1" source="sTEcWktnqmlNov8V5_Up-63" target="sTEcWktnqmlNov8V5_Up-62">
          <mxGeometry relative="1" as="geometry" />
        </mxCell>
        <mxCell id="sTEcWktnqmlNov8V5_Up-63" value="&lt;p style=&quot;margin:0px;margin-top:4px;text-align:center;&quot;&gt;&lt;b&gt;Manager&lt;/b&gt;&lt;/p&gt;&lt;hr size=&quot;1&quot; style=&quot;border-style:solid;&quot;&gt;&lt;p style=&quot;margin:0px;margin-left:4px;&quot;&gt;&lt;br&gt;&lt;/p&gt;" style="verticalAlign=top;align=left;overflow=fill;html=1;whiteSpace=wrap;" vertex="1" parent="1">
          <mxGeometry x="324" y="1420" width="190" height="60" as="geometry" />
        </mxCell>
        <mxCell id="sTEcWktnqmlNov8V5_Up-67" style="edgeStyle=none;rounded=0;orthogonalLoop=1;jettySize=auto;html=1;endArrow=blockThin;endFill=0;" edge="1" parent="1" source="sTEcWktnqmlNov8V5_Up-66" target="sTEcWktnqmlNov8V5_Up-62">
          <mxGeometry relative="1" as="geometry" />
        </mxCell>
        <mxCell id="sTEcWktnqmlNov8V5_Up-66" value="&lt;p style=&quot;margin:0px;margin-top:4px;text-align:center;&quot;&gt;&lt;b&gt;Programmer&lt;/b&gt;&lt;/p&gt;&lt;hr size=&quot;1&quot; style=&quot;border-style:solid;&quot;&gt;&lt;p style=&quot;margin:0px;margin-left:4px;&quot;&gt;&lt;br&gt;&lt;/p&gt;" style="verticalAlign=top;align=left;overflow=fill;html=1;whiteSpace=wrap;" vertex="1" parent="1">
          <mxGeometry x="614" y="1420" width="190" height="60" as="geometry" />
        </mxCell>
        <mxCell id="sTEcWktnqmlNov8V5_Up-69" style="edgeStyle=none;rounded=0;orthogonalLoop=1;jettySize=auto;html=1;endArrow=blockThin;endFill=0;" edge="1" parent="1" source="sTEcWktnqmlNov8V5_Up-68" target="sTEcWktnqmlNov8V5_Up-66">
          <mxGeometry relative="1" as="geometry" />
        </mxCell>
        <mxCell id="sTEcWktnqmlNov8V5_Up-68" value="&lt;p style=&quot;margin:0px;margin-top:4px;text-align:center;&quot;&gt;&lt;b&gt;SeniorProgrammer&lt;/b&gt;&lt;/p&gt;&lt;hr size=&quot;1&quot; style=&quot;border-style:solid;&quot;&gt;&lt;p style=&quot;margin:0px;margin-left:4px;&quot;&gt;&lt;br&gt;&lt;/p&gt;" style="verticalAlign=top;align=left;overflow=fill;html=1;whiteSpace=wrap;" vertex="1" parent="1">
          <mxGeometry x="614" y="1540" width="190" height="60" as="geometry" />
        </mxCell>
        <mxCell id="sTEcWktnqmlNov8V5_Up-70" value="&lt;p style=&quot;margin:0px;margin-top:4px;text-align:center;&quot;&gt;&lt;i&gt;&amp;lt;&amp;lt;Interface&amp;gt;&amp;gt;&lt;/i&gt;&lt;br&gt;&lt;b&gt;Payable&lt;/b&gt;&lt;/p&gt;&lt;hr size=&quot;1&quot; style=&quot;border-style:solid;&quot;&gt;&lt;p style=&quot;margin:0px;margin-left:4px;&quot;&gt;&lt;/p&gt;&lt;p style=&quot;margin:0px;margin-left:4px;&quot;&gt;+ calculatePay(): float&lt;br&gt;+ method2(Type, Type): Type&lt;/p&gt;" style="verticalAlign=top;align=left;overflow=fill;html=1;whiteSpace=wrap;" vertex="1" parent="1">
          <mxGeometry x="60" y="1190" width="190" height="140" as="geometry" />
        </mxCell>
        <mxCell id="sTEcWktnqmlNov8V5_Up-73" style="edgeStyle=none;rounded=0;orthogonalLoop=1;jettySize=auto;html=1;dashed=1;endArrow=blockThin;endFill=0;" edge="1" parent="1" source="sTEcWktnqmlNov8V5_Up-71" target="sTEcWktnqmlNov8V5_Up-70">
          <mxGeometry relative="1" as="geometry" />
        </mxCell>
        <mxCell id="sTEcWktnqmlNov8V5_Up-71" value="&lt;p style=&quot;margin:0px;margin-top:4px;text-align:center;&quot;&gt;&lt;b&gt;Employee&lt;/b&gt;&lt;/p&gt;&lt;hr size=&quot;1&quot; style=&quot;border-style:solid;&quot;&gt;&lt;div style=&quot;height:2px;&quot;&gt;&lt;/div&gt;" style="verticalAlign=top;align=left;overflow=fill;html=1;whiteSpace=wrap;" vertex="1" parent="1">
          <mxGeometry y="1410" width="140" height="60" as="geometry" />
        </mxCell>
        <mxCell id="sTEcWktnqmlNov8V5_Up-74" style="edgeStyle=none;rounded=0;orthogonalLoop=1;jettySize=auto;html=1;dashed=1;endArrow=blockThin;endFill=0;" edge="1" parent="1" source="sTEcWktnqmlNov8V5_Up-72" target="sTEcWktnqmlNov8V5_Up-70">
          <mxGeometry relative="1" as="geometry" />
        </mxCell>
        <mxCell id="sTEcWktnqmlNov8V5_Up-72" value="&lt;p style=&quot;margin:0px;margin-top:4px;text-align:center;&quot;&gt;&lt;b&gt;Manager&lt;/b&gt;&lt;/p&gt;&lt;hr size=&quot;1&quot; style=&quot;border-style:solid;&quot;&gt;&lt;div style=&quot;height:2px;&quot;&gt;&lt;/div&gt;" style="verticalAlign=top;align=left;overflow=fill;html=1;whiteSpace=wrap;" vertex="1" parent="1">
          <mxGeometry x="160" y="1410" width="140" height="60" as="geometry" />
        </mxCell>
        <mxCell id="sTEcWktnqmlNov8V5_Up-87" style="edgeStyle=none;rounded=0;orthogonalLoop=1;jettySize=auto;html=1;endArrow=diamondThin;endFill=0;endSize=10;" edge="1" parent="1" source="sTEcWktnqmlNov8V5_Up-75" target="sTEcWktnqmlNov8V5_Up-86">
          <mxGeometry relative="1" as="geometry" />
        </mxCell>
        <mxCell id="sTEcWktnqmlNov8V5_Up-75" value="Book" style="swimlane;fontStyle=1;align=center;verticalAlign=top;childLayout=stackLayout;horizontal=1;startSize=26;horizontalStack=0;resizeParent=1;resizeParentMax=0;resizeLast=0;collapsible=1;marginBottom=0;whiteSpace=wrap;html=1;" vertex="1" parent="1">
          <mxGeometry x="70" y="1880" width="160" height="80" as="geometry" />
        </mxCell>
        <mxCell id="sTEcWktnqmlNov8V5_Up-76" value="+ title: string&lt;div&gt;+ author: string&lt;/div&gt;&lt;div&gt;+ isbn: string&lt;/div&gt;" style="text;strokeColor=none;fillColor=none;align=left;verticalAlign=top;spacingLeft=4;spacingRight=4;overflow=hidden;rotatable=0;points=[[0,0.5],[1,0.5]];portConstraint=eastwest;whiteSpace=wrap;html=1;" vertex="1" parent="sTEcWktnqmlNov8V5_Up-75">
          <mxGeometry y="26" width="160" height="54" as="geometry" />
        </mxCell>
        <mxCell id="sTEcWktnqmlNov8V5_Up-88" style="edgeStyle=none;rounded=0;orthogonalLoop=1;jettySize=auto;html=1;endArrow=diamondThin;endFill=0;endSize=10;" edge="1" parent="1" source="sTEcWktnqmlNov8V5_Up-79" target="sTEcWktnqmlNov8V5_Up-86">
          <mxGeometry relative="1" as="geometry" />
        </mxCell>
        <mxCell id="sTEcWktnqmlNov8V5_Up-79" value="Member" style="swimlane;fontStyle=1;align=center;verticalAlign=top;childLayout=stackLayout;horizontal=1;startSize=26;horizontalStack=0;resizeParent=1;resizeParentMax=0;resizeLast=0;collapsible=1;marginBottom=0;whiteSpace=wrap;html=1;" vertex="1" parent="1">
          <mxGeometry x="510" y="1880" width="160" height="80" as="geometry" />
        </mxCell>
        <mxCell id="sTEcWktnqmlNov8V5_Up-80" value="+ name: string&lt;div&gt;+ id: int&lt;/div&gt;&lt;div&gt;+ registrDate: string&lt;/div&gt;" style="text;strokeColor=none;fillColor=none;align=left;verticalAlign=top;spacingLeft=4;spacingRight=4;overflow=hidden;rotatable=0;points=[[0,0.5],[1,0.5]];portConstraint=eastwest;whiteSpace=wrap;html=1;" vertex="1" parent="sTEcWktnqmlNov8V5_Up-79">
          <mxGeometry y="26" width="160" height="54" as="geometry" />
        </mxCell>
        <mxCell id="sTEcWktnqmlNov8V5_Up-83" value="Library" style="swimlane;fontStyle=1;align=center;verticalAlign=top;childLayout=stackLayout;horizontal=1;startSize=26;horizontalStack=0;resizeParent=1;resizeParentMax=0;resizeLast=0;collapsible=1;marginBottom=0;whiteSpace=wrap;html=1;" vertex="1" parent="1">
          <mxGeometry x="230" y="1680" width="290" height="160" as="geometry">
            <mxRectangle x="230" y="1680" width="80" height="30" as="alternateBounds" />
          </mxGeometry>
        </mxCell>
        <mxCell id="sTEcWktnqmlNov8V5_Up-84" value="&lt;div&gt;- books[*]: Book&lt;/div&gt;&lt;div&gt;- members[*]: Member&lt;/div&gt;" style="text;strokeColor=none;fillColor=none;align=left;verticalAlign=top;spacingLeft=4;spacingRight=4;overflow=hidden;rotatable=0;points=[[0,0.5],[1,0.5]];portConstraint=eastwest;whiteSpace=wrap;html=1;" vertex="1" parent="sTEcWktnqmlNov8V5_Up-83">
          <mxGeometry y="26" width="290" height="44" as="geometry" />
        </mxCell>
        <mxCell id="sTEcWktnqmlNov8V5_Up-85" value="" style="line;strokeWidth=1;fillColor=none;align=left;verticalAlign=middle;spacingTop=-1;spacingLeft=3;spacingRight=3;rotatable=0;labelPosition=right;points=[];portConstraint=eastwest;strokeColor=inherit;" vertex="1" parent="sTEcWktnqmlNov8V5_Up-83">
          <mxGeometry y="70" width="290" height="8" as="geometry" />
        </mxCell>
        <mxCell id="sTEcWktnqmlNov8V5_Up-86" value="+ addBook(book: Book): void&lt;div&gt;+ removeBook(isbn: string): void&lt;/div&gt;&lt;div&gt;+ registrMember(member: Member): void&lt;/div&gt;&lt;div&gt;+ borrowBook(isbn: string, member: Member): void&lt;/div&gt;&lt;div&gt;+ returnBook&lt;span style=&quot;background-color: initial;&quot;&gt;(isbn: string, member: Member): void&lt;/span&gt;&lt;/div&gt;" style="text;strokeColor=none;fillColor=none;align=left;verticalAlign=top;spacingLeft=4;spacingRight=4;overflow=hidden;rotatable=0;points=[[0,0.5],[1,0.5]];portConstraint=eastwest;whiteSpace=wrap;html=1;" vertex="1" parent="sTEcWktnqmlNov8V5_Up-83">
          <mxGeometry y="78" width="290" height="82" as="geometry" />
        </mxCell>
      </root>
    </mxGraphModel>
  </diagram>
</mxfile>
